<svg xmlns:dc="http://purl.org/dc/elements/1.1/" xmlns:cc="http://creativecommons.org/ns#" xmlns:rdf="http://www.w3.org/1999/02/22-rdf-syntax-ns#" xmlns:svg="http://www.w3.org/2000/svg" xmlns="http://www.w3.org/2000/svg" viewBox="0 0 280 280" fill="none"><metadata><rdf:RDF><cc:Work><dc:format>image/svg+xml</dc:format><dc:type rdf:resource="http://purl.org/dc/dcmitype/StillImage"/><dc:title>Avataaars</dc:title><dc:creator><cc:Agent><dc:title>Pablo Stanley</dc:title></cc:Agent></dc:creator><dc:source>https://avataaars.com/</dc:source><cc:license rdf:resource="https://avataaars.com/"/><dc:contributor><cc:Agent><dc:title>Florian Körner</dc:title></cc:Agent></dc:contributor></cc:Work></rdf:RDF></metadata><mask id="avatarsRadiusMask"><rect width="280" height="280" rx="0" ry="0" x="0" y="0" fill="#fff"/></mask><g mask="url(#avatarsRadiusMask)"><g transform="translate(40, 36)"><path d="M100 0C69.072 0 44 25.072 44 56v6.166c-5.675.952-10 5.888-10 11.834v14c0 6.052 4.48 11.058 10.305 11.881 2.067 19.806 14.458 36.541 31.695 44.73V163h-4c-39.764 0-72 32.236-72 72v9h200v-9c0-39.764-32.236-72-72-72h-4v-18.389c17.237-8.189 29.628-24.924 31.695-44.73C161.52 99.058 166 94.052 166 88V74c0-5.946-4.325-10.882-10-11.834V56c0-30.928-25.072-56-56-56z" fill="#FFDBB4"/><path d="M76 144.611v8A55.79 55.79 0 00100 158a55.789 55.789 0 0024-5.389v-8A55.789 55.789 0 01100 150a55.79 55.79 0 01-24-5.389z" fill="#000" fill-opacity=".1"/></g><g transform="translate(8, 170)"><path d="M132.5 51.828c18.502 0 33.5-9.617 33.5-21.48 0-.353-.013-.704-.04-1.053 36.976 3.03 66.04 34 66.04 71.757V110H32v-8.948c0-38.1 29.592-69.287 67.045-71.833-.03.374-.045.75-.045 1.129 0 11.863 14.998 21.48 33.5 21.48z" fill="#E6E6E6"/><path d="M132.5 58.761c21.89 0 39.635-12.05 39.635-26.913 0-.603-.029-1.2-.086-1.793a72.056 72.056 0 00-6.089-.76c.027.349.04.7.04 1.053 0 11.863-14.998 21.48-33.5 21.48-18.502 0-33.5-9.617-33.5-21.48 0-.379.015-.755.045-1.128-2.05.139-4.077.364-6.077.672a18.594 18.594 0 00-.103 1.956c0 14.864 17.745 26.913 39.635 26.913z" fill="#000" fill-opacity=".16"/><path d="M100.778 29.122c.072-.378.145-.752.222-1.122-2.959.054-6 1-6 1l-.42.662C59.267 34.276 32 64.48 32 101.052V110h74s-10.7-51.555-5.238-80.793l.023-.085h-.007zM158 110s11-53 5-82c2.959.054 6 1 6 1l.419.662C204.733 34.276 232 64.48 232 101.052V110h-74z" fill="#E5E5E5"/><path fill-rule="evenodd" clip-rule="evenodd" d="M101 28c-6 29 5 82 5 82H90L76 74l6-9-6-6 19-30s3.041-.946 6-1zm62 0c6 29-5 82-5 82h16l14-36-6-9 6-6-19-30s-3.041-.946-6-1z" fill="#000" fill-opacity=".15"/><path d="M183.423 85.77l.871-2.24 6.262-4.697a4 4 0 014.856.043L202 84l-18.577 1.77z" fill="#E6E6E6"/></g><g transform="translate(86, 134)"><path fill-rule="evenodd" clip-rule="evenodd" d="M40 15c0 7.732 6.268 14 14 14s14-6.268 14-14" fill="#000" fill-opacity=".7"/></g><g transform="translate(112, 122)"><path fill-rule="evenodd" clip-rule="evenodd" d="M16 8c0 4.418 5.373 8 12 8s12-3.582 12-8" fill="#000" fill-opacity=".16"/></g><g transform="translate(84, 90)"><path fill-rule="evenodd" clip-rule="evenodd" d="M16.16 27.553C18.007 31.352 22.164 34 26.998 34c4.816 0 8.961-2.63 10.817-6.407.552-1.122-.233-2.04-1.024-1.36-2.451 2.107-5.932 3.423-9.793 3.423-3.74 0-7.124-1.235-9.56-3.228-.891-.728-1.818.014-1.278 1.125zm58 0C76.007 31.352 80.164 34 84.998 34c4.816 0 8.961-2.63 10.817-6.407.552-1.122-.233-2.04-1.024-1.36-2.451 2.107-5.932 3.423-9.793 3.423-3.74 0-7.124-1.235-9.56-3.228-.891-.728-1.818.014-1.278 1.125z" fill="#000" fill-opacity=".6"/></g><g transform="translate(84, 82)"><path fill-rule="evenodd" clip-rule="evenodd" d="M22.766 1.578l.911-.402C28.92-.905 36.865-.033 41.723 2.299c.567.272.18 1.153-.402 1.108-14.919-1.151-24.963 8.146-28.375 14.44-.101.187-.407.208-.482.034-2.308-5.319 4.45-13.985 10.302-16.303zM86.993 12.07c5.761.773 14.746 5.795 13.994 11.607-.024.19-.312.25-.436.091-2.487-3.188-21.712-7.872-28.713-6.894-.641.09-1.064-.571-.627-.984 3.744-3.536 10.62-4.518 15.782-3.82z" fill="#000" fill-opacity=".6"/></g><g transform="translate(7, 0)"><path d="M44.826 105.591c-.382-1.606-.769-3.229-1.124-4.91-1.952-9.236-2.956-20.223 2.884-39.676-6.903 22.995-4.243 34.16-1.76 44.586 1.238 5.196 2.432 10.208 2.377 16.409.02 2.295-.38 4.285-1.104 6.057.723-1.772 1.124-3.762 1.104-6.057.055-6.201-1.14-11.213-2.377-16.409zm173.55 8.643c-.131.386-.156.805-.173 1.226.053-.412.111-.821.173-1.226zm-.33 2.579a47.23 47.23 0 00-.223 3.347c-29.04-10.756-54.946-29.617-70.328-51.548-12.093 15.618-31.955 23.04-51.622 30.391-17.386 6.498-34.619 12.939-46.2 24.933.388-.544.755-1.051 1.086-1.49 10.998-14.601 28.764-21.887 46.7-29.242 18.816-7.716 37.817-15.508 49.387-31.902 15.398 24.088 41.819 44.648 71.163 55.625.014-.038.026-.076.037-.114z" fill="#000" fill-opacity=".16"/><path d="M32.005 280H33v-9c0-39.764 32.236-72 72-72h4v-18.389c-17.53-8.328-30.048-25.496-31.791-45.744C71.43 134.002 67 129.019 67 123v-13c0-.794.077-1.569.224-2.32 9.114-5.815 19.645-10.133 30.235-14.476 18.815-7.716 37.817-15.508 49.386-31.902 11.958 18.706 30.562 35.283 52.021 46.898.088.587.134 1.188.134 1.8v13c0 6.019-4.431 11.002-10.209 11.867-1.743 20.248-14.26 37.416-31.791 45.744V199h4c39.764 0 72 32.236 72 72v9c24.414-13.94 15.859-33.211 6.284-48.463-1.368-2.179-2.756-4.276-4.073-6.264-3.479-5.255-6.453-9.746-7.201-12.97a6.578 6.578 0 01-.179-1.303c-.144-4.617 3.141-7.836 7.164-11.777 6.21-6.084 14.178-13.891 14.008-31.223-.514-15.834-9.801-22.253-18.109-27.995-6.924-4.785-13.168-9.101-13.091-18.005a46.419 46.419 0 01.244-5.189c.118-.4.135-.828.152-1.254l.004-.093c.444-3.443 1.202-6.622 1.976-9.873 2.555-10.725 5.295-22.232-2.376-46.591-2.91-9.115-6.971-16.5-12.101-22.461-14.127-16.419-36.354-22.041-64.906-23.289a297.772 297.772 0 00-7.793-.234V13l-.5.008-.5-.008c-43.086.768-73.163 9.54-84.8 46-7.672 24.36-4.931 35.866-2.377 46.591 1.238 5.196 2.432 10.208 2.377 16.409.032 3.753-1.059 6.691-2.85 9.193-2.459 3.433-6.237 6.044-10.242 8.812-8.308 5.742-17.595 12.161-18.108 27.995-.17 17.332 7.797 25.139 14.007 31.223 4.023 3.941 7.308 7.16 7.164 11.777-.087 3.259-3.403 8.267-7.38 14.273-10.53 15.901-25.69 38.795 2.211 54.727z" fill="#B58143"/><path fill-rule="evenodd" clip-rule="evenodd" d="M50.58 122.446c22.536-29.919 73.489-29.122 96.087-61.144 15.398 24.088 41.819 44.648 71.164 55.625.301-.854.08-1.85.367-2.694 2.155-14.144 9.144-24.378-.574-55.233-11.637-36.46-41.714-45.232-84.8-45.984a465.51 465.51 0 00-1-.016c-43.086.768-73.163 9.54-84.8 46-11.388 36.16.17 43.999 0 63 .033 3.753-1.058 6.691-2.85 9.193.184.402 4.154-5.756 6.406-8.747z" fill="#fff" fill-opacity=".2"/></g></g></svg>