<svg xmlns:dc="http://purl.org/dc/elements/1.1/" xmlns:cc="http://creativecommons.org/ns#" xmlns:rdf="http://www.w3.org/1999/02/22-rdf-syntax-ns#" xmlns:svg="http://www.w3.org/2000/svg" xmlns="http://www.w3.org/2000/svg" viewBox="0 0 280 280" fill="none"><metadata><rdf:RDF><cc:Work><dc:format>image/svg+xml</dc:format><dc:type rdf:resource="http://purl.org/dc/dcmitype/StillImage"/><dc:title>Avataaars</dc:title><dc:creator><cc:Agent><dc:title>Pablo Stanley</dc:title></cc:Agent></dc:creator><dc:source>https://avataaars.com/</dc:source><cc:license rdf:resource="https://avataaars.com/"/><dc:contributor><cc:Agent><dc:title>Florian Körner</dc:title></cc:Agent></dc:contributor></cc:Work></rdf:RDF></metadata><mask id="avatarsRadiusMask"><rect width="280" height="280" rx="0" ry="0" x="0" y="0" fill="#fff"/></mask><g mask="url(#avatarsRadiusMask)"><g transform="translate(40, 36)"><path d="M100 0C69.072 0 44 25.072 44 56v6.166c-5.675.952-10 5.888-10 11.834v14c0 6.052 4.48 11.058 10.305 11.881 2.067 19.806 14.458 36.541 31.695 44.73V163h-4c-39.764 0-72 32.236-72 72v9h200v-9c0-39.764-32.236-72-72-72h-4v-18.389c17.237-8.189 29.628-24.924 31.695-44.73C161.52 99.058 166 94.052 166 88V74c0-5.946-4.325-10.882-10-11.834V56c0-30.928-25.072-56-56-56z" fill="#AE5D29"/><path d="M76 144.611v8A55.79 55.79 0 00100 158a55.789 55.789 0 0024-5.389v-8A55.789 55.789 0 01100 150a55.79 55.79 0 01-24-5.389z" fill="#000" fill-opacity=".1"/></g><g transform="translate(8, 170)"><path d="M132.5 51.828c18.502 0 33.5-9.617 33.5-21.48 0-.353-.013-.704-.04-1.053 36.976 3.03 66.04 34 66.04 71.757V110H32v-8.948c0-38.1 29.592-69.287 67.045-71.833-.03.374-.045.75-.045 1.129 0 11.863 14.998 21.48 33.5 21.48z" fill="#262E33"/><path d="M132.5 58.761c21.89 0 39.635-12.05 39.635-26.913 0-.603-.029-1.2-.086-1.793a72.056 72.056 0 00-6.089-.76c.027.349.04.7.04 1.053 0 11.863-14.998 21.48-33.5 21.48-18.502 0-33.5-9.617-33.5-21.48 0-.379.015-.755.045-1.128-2.05.139-4.077.364-6.077.672a18.592 18.592 0 00-.103 1.956c0 14.864 17.745 26.913 39.635 26.913z" fill="#000" fill-opacity=".08"/></g><g transform="translate(86, 134)"><rect x="42" y="18" width="24" height="6" rx="3" fill="#000" fill-opacity=".7"/></g><g transform="translate(112, 122)"><path fill-rule="evenodd" clip-rule="evenodd" d="M16 8c0 4.418 5.373 8 12 8s12-3.582 12-8" fill="#000" fill-opacity=".16"/></g><g transform="translate(84, 90)"><path d="M36 22a6 6 0 11-12 0 6 6 0 0112 0zm52 0a6 6 0 11-12 0 6 6 0 0112 0z" fill="#000" fill-opacity=".6"/></g><g transform="translate(84, 82)"><path fill-rule="evenodd" clip-rule="evenodd" d="M26.547 6.148c-5.807.269-15.195 4.488-14.953 10.344.008.192.29.276.427.129 2.755-2.96 22.316-5.95 29.205-4.365.63.145 1.11-.477.71-.927-3.422-3.848-10.186-5.426-15.389-5.18zm59.906 0c5.807.269 15.195 4.488 14.953 10.344-.008.192-.29.276-.427.129-2.755-2.96-22.316-5.95-29.205-4.365-.63.145-1.11-.477-.71-.927 3.422-3.848 10.186-5.426 15.389-5.18z" fill="#000" fill-opacity=".6"/></g><g transform="translate(56, 72)"><path fill-rule="evenodd" clip-rule="evenodd" d="M101.428 98.169c-2.513 2.294-5.19 3.325-8.575 2.604-.582-.124-2.957-4.538-8.853-4.538-5.897 0-8.27 4.414-8.853 4.538-3.385.721-6.062-.31-8.576-2.604-4.725-4.313-8.654-10.26-6.293-16.75 1.23-3.382 3.232-7.095 6.873-8.173 3.887-1.15 9.346-.002 13.264-.788 1.27-.254 2.656-.707 3.585-1.458.929.75 2.316 1.204 3.585 1.458 3.918.786 9.376-.362 13.264.788 3.641 1.078 5.642 4.79 6.873 8.173 2.361 6.49-1.568 12.437-6.294 16.75zM140.081 26c-3.41 8.4-2.093 18.858-2.724 27.676-.513 7.167-2.02 17.91-8.384 22.538-3.255 2.368-9.179 6.346-13.431 5.236-2.927-.764-3.24-9.16-7.087-12.303-4.363-3.565-9.812-5.131-15.306-4.89-2.37.105-7.165.08-9.15 1.903-1.983-1.822-6.777-1.798-9.148-1.902-5.494-.242-10.943 1.324-15.306 4.889-3.847 3.143-4.16 11.54-7.087 12.303-4.252 1.11-10.176-2.868-13.431-5.236-6.365-4.628-7.87-15.37-8.384-22.538-.63-8.818.686-19.276-2.724-27.676-1.66 0-.565 16.129-.565 16.129v20.356c.032 15.288 9.581 38.17 30.754 46.908C63.286 111.53 75.015 115 84 115s20.714-3.14 25.892-5.277c21.173-8.737 30.722-31.95 30.754-47.238V42.13S141.74 26 140.081 26z" fill="#724133"/></g><g transform="translate(7, 0)"><path fill-rule="evenodd" clip-rule="evenodd" d="M180.15 39.92c-2.76-2.82-5.964-5.213-9.081-7.613-.687-.53-1.386-1.046-2.058-1.595-.153-.125-1.719-1.246-1.906-1.659-.451-.993-.19-.22-.128-1.404.079-1.498 3.134-5.73.854-6.7-1.003-.427-2.791.709-3.753 1.084a59.558 59.558 0 01-5.731 1.9c.932-1.857 2.708-5.573-.631-4.579-2.602.775-5.026 2.768-7.64 3.705.865-1.418 4.324-5.811 1.198-6.057-.972-.076-3.803 1.748-4.85 2.138-3.137 1.165-6.341 1.92-9.634 2.513-11.198 2.018-24.293 1.442-34.653 6.54-7.987 3.93-15.874 10.029-20.489 17.794-4.447 7.486-6.11 15.677-7.041 24.254-.683 6.295-.739 12.802-.42 19.119.105 2.07.338 11.611 3.345 8.721 1.498-1.44 1.487-7.253 1.864-9.22.751-3.916 1.474-7.848 2.726-11.638 2.206-6.68 4.809-13.793 10.305-18.393 3.527-2.952 6.004-6.941 9.379-9.919 1.516-1.337.359-1.198 2.797-1.022 1.638.117 3.282.162 4.923.205 3.796.099 7.598.074 11.395.087 7.647.028 15.258.136 22.898-.265 3.395-.177 6.799-.274 10.185-.588 1.891-.175 5.247-1.387 6.804-.461 1.425.847 2.905 3.615 3.928 4.748 2.418 2.679 5.3 4.724 8.126 6.92 5.895 4.58 8.87 10.332 10.661 17.488 1.783 7.13 1.283 13.745 3.49 20.762.389 1.234 1.416 3.36 2.682 1.454.235-.354.175-2.3.175-3.42 0-4.52 1.144-7.91 1.13-12.46-.056-13.832-.504-31.868-10.85-42.439z" fill="#2C1B18"/></g></g></svg>