<svg xmlns:dc="http://purl.org/dc/elements/1.1/" xmlns:cc="http://creativecommons.org/ns#" xmlns:rdf="http://www.w3.org/1999/02/22-rdf-syntax-ns#" xmlns:svg="http://www.w3.org/2000/svg" xmlns="http://www.w3.org/2000/svg" viewBox="0 0 280 280" fill="none"><metadata><rdf:RDF><cc:Work><dc:format>image/svg+xml</dc:format><dc:type rdf:resource="http://purl.org/dc/dcmitype/StillImage"/><dc:title>Avataaars</dc:title><dc:creator><cc:Agent><dc:title>Pablo Stanley</dc:title></cc:Agent></dc:creator><dc:source>https://avataaars.com/</dc:source><cc:license rdf:resource="https://avataaars.com/"/><dc:contributor><cc:Agent><dc:title>Florian Körner</dc:title></cc:Agent></dc:contributor></cc:Work></rdf:RDF></metadata><mask id="avatarsRadiusMask"><rect width="280" height="280" rx="0" ry="0" x="0" y="0" fill="#fff"/></mask><g mask="url(#avatarsRadiusMask)"><g transform="translate(40, 36)"><path d="M100 0C69.072 0 44 25.072 44 56v6.166c-5.675.952-10 5.888-10 11.834v14c0 6.052 4.48 11.058 10.305 11.881 2.067 19.806 14.458 36.541 31.695 44.73V163h-4c-39.764 0-72 32.236-72 72v9h200v-9c0-39.764-32.236-72-72-72h-4v-18.389c17.237-8.189 29.628-24.924 31.695-44.73C161.52 99.058 166 94.052 166 88V74c0-5.946-4.325-10.882-10-11.834V56c0-30.928-25.072-56-56-56z" fill="#EDB98A"/><path d="M76 144.611v8A55.79 55.79 0 00100 158a55.789 55.789 0 0024-5.389v-8A55.789 55.789 0 01100 150a55.79 55.79 0 01-24-5.389z" fill="#000" fill-opacity=".1"/></g><g transform="translate(8, 170)"><path d="M108 14.694C92.484 18.38 80.895 25.529 77.228 34.142 50.72 44.765 32 70.696 32 101v9h200v-9.001c0-30.303-18.721-56.234-45.228-66.858-3.667-8.613-15.256-15.761-30.772-19.447V32c0 13.255-10.745 24-24 24s-24-10.745-24-24V14.694z" fill="#262E33"/><path d="M102 63.337a67.11 67.11 0 01-7-2.817V110h7V63.337zm60 0a67.039 67.039 0 007-2.817V98.5a3.5 3.5 0 11-7 0V63.337z" fill="#F4F4F4"/><path d="M187.62 34.488a71.788 71.788 0 0110.832 5.628C197.107 55.615 167.87 68 132 68c30.928 0 56-13.431 56-30 0-1.188-.129-2.36-.38-3.512zm-111.24 0A16.477 16.477 0 0076 38c0 16.569 25.072 30 56 30-35.87 0-65.107-12.385-66.452-27.884a71.783 71.783 0 0110.832-5.628z" fill="#000" fill-opacity=".16"/></g><g transform="translate(86, 134)"><path fill-rule="evenodd" clip-rule="evenodd" d="M35.118 15.128C36.176 24.62 44.226 32 54 32c9.804 0 17.874-7.426 18.892-16.96.082-.767-.775-2.04-1.85-2.04H37.088c-1.08 0-2.075 1.178-1.97 2.128z" fill="#000" fill-opacity=".7"/><path d="M70 13H39a5 5 0 005 5h21a5 5 0 005-5z" fill="#fff"/><path d="M66.694 27.138A10.964 10.964 0 0059 24c-1.8 0-3.5.433-5 1.2-1.5-.767-3.2-1.2-5-1.2-2.995 0-5.71 1.197-7.693 3.138A18.93 18.93 0 0054 32c4.88 0 9.329-1.84 12.694-4.862z" fill="#FF4F6D"/></g><g transform="translate(112, 122)"><path fill-rule="evenodd" clip-rule="evenodd" d="M16 8c0 4.418 5.373 8 12 8s12-3.582 12-8" fill="#000" fill-opacity=".16"/></g><g transform="translate(84, 90)"><path d="M36 22a6 6 0 11-12 0 6 6 0 0112 0zm52 0a6 6 0 11-12 0 6 6 0 0112 0z" fill="#000" fill-opacity=".6"/></g><g transform="translate(84, 82)"><path fill-rule="evenodd" clip-rule="evenodd" d="M26.547 6.148c-5.807.269-15.195 4.488-14.953 10.344.008.192.29.276.427.129 2.755-2.96 22.316-5.95 29.205-4.365.63.145 1.11-.477.71-.927-3.422-3.848-10.186-5.426-15.389-5.18zm59.906 0c5.807.269 15.195 4.488 14.953 10.344-.008.192-.29.276-.427.129-2.755-2.96-22.316-5.95-29.205-4.365-.63.145-1.11-.477-.71-.927 3.422-3.848 10.186-5.426 15.389-5.18z" fill="#000" fill-opacity=".6"/></g><g transform="translate(7, 0)"><path fill-rule="evenodd" clip-rule="evenodd" d="M183.68 38.949c5.406-4.95 6.707-14.987 3.638-21.5-3.769-7.995-11.417-8.997-18.746-5.48-6.908 3.315-13.057 4.419-20.622 2.813-7.258-1.541-14.144-4.26-21.647-4.706-12.325-.733-24.3 3.839-32.7 13.053-1.603 1.758-2.894 3.768-4.115 5.805-.977 1.63-2.078 3.38-2.493 5.258-.198.894.17 3.098-.275 3.83-.48.79-2.296 1.515-3.069 2.102-1.567 1.188-2.924 2.53-4.18 4.047-2.666 3.222-4.133 6.587-5.368 10.572-4.102 13.245-4.45 28.998.854 42.004.707 1.734 2.898 5.352 4.186 1.638.255-.734-.334-3.194-.333-3.935.005-2.72 1.506-20.729 8.047-30.817 2.13-3.284 11.973-15.58 13.984-15.68 1.065 1.693 11.88 12.51 39.942 11.242 12.662-.572 22.4-6.26 24.738-8.727 1.028 5.533 12.992 13.816 14.815 17.224 5.267 9.846 6.435 30.304 8.445 30.265 2.01-.038 3.453-5.237 3.867-6.23 3.072-7.375 3.595-16.632 3.267-24.559-.427-10.202-4.638-21.226-12.235-28.22z" fill="#2C1B18"/></g><g transform="translate(69, 85)"><path fill-rule="evenodd" clip-rule="evenodd" d="M38.5 9C17.21 9 9.646 14.096 8.955 14.772 7.324 14.772 6 16.062 6 17.657v2.886c0 1.596 1.324 2.886 2.955 2.886 0 0 5.909 0 5.909 2.886 0 .435.067.644.181.68A62.59 62.59 0 0015 29.5C15 42.336 23.315 50 37.242 50H40c14.721 0 25-8.431 25-20.5 0-1.502-.038-2.999-.17-4.46l1.583-.773a7.917 7.917 0 011.891-.633c1.855-.38 3.952-.227 5.992.276.732.18 1.26.354 1.504.45l1.381.547C77.041 26.41 77 27.953 77 29.5 77 42.336 85.315 50 99.242 50H102c14.721 0 25-8.431 25-20.5 0-1.536-.04-3.067-.178-4.56 1.739-1.511 6.223-1.511 6.223-1.511 1.634 0 2.955-1.29 2.955-2.886v-2.886c0-1.596-1.321-2.885-2.955-2.885C132.354 14.096 124.79 9 103.5 9h-2.97c-1.79 0-3.445.069-4.975.201-9.533.539-14.679 2.15-19.913 4.696a17.01 17.01 0 01-4.563.869c-2.379-.076-4.412-.767-4.81-.908l-.419-.206-.006-.003c-4.935-2.415-8.429-4.125-20.772-4.547A61.165 61.165 0 0041.47 9H38.5zM19 30.502C19 21.84 19 15 38.385 15h3.23C61 15 61 21.841 61 30.502 61 39.627 52.365 46 40 46h-3.03C22.117 46 19 37.572 19 30.502zm62 0C81 21.84 81 15 100.385 15h3.23C123 15 123 21.841 123 30.502 123 39.627 114.365 46 102 46h-3.03C84.12 46 81 37.572 81 30.502z" fill="#000" fill-opacity=".1"/><path fill-rule="evenodd" clip-rule="evenodd" d="M38.5 7C17.21 7 9.646 12.096 8.955 12.772 7.324 12.772 6 14.062 6 15.657v2.886c0 1.596 1.324 2.886 2.955 2.886 0 0 5.909 0 5.909 2.886 0 .435.067.644.181.68A62.59 62.59 0 0015 27.5C15 40.336 23.315 48 37.242 48H40c14.721 0 25-8.431 25-20.5 0-1.502-.038-2.999-.17-4.46l1.583-.773a7.917 7.917 0 011.891-.633c1.855-.38 3.952-.227 5.992.276.732.18 1.26.354 1.504.45l1.381.547C77.041 24.41 77 25.953 77 27.5 77 40.336 85.315 48 99.242 48H102c14.721 0 25-8.431 25-20.5 0-1.536-.04-3.067-.178-4.56 1.739-1.511 6.223-1.511 6.223-1.511 1.634 0 2.955-1.29 2.955-2.886v-2.886c0-1.595-1.321-2.885-2.955-2.885C132.354 12.096 124.79 7 103.5 7h-2.97c-1.79 0-3.445.069-4.975.2-9.533.54-14.679 2.152-19.913 4.697a17.01 17.01 0 01-4.563.869c-2.379-.076-4.412-.767-4.81-.908l-.419-.206-.006-.003c-4.935-2.415-8.429-4.125-20.772-4.547A61.165 61.165 0 0041.47 7H38.5zM19 28.502C19 19.84 19 13 38.385 13h3.23C61 13 61 19.841 61 28.502 61 37.627 52.365 44 40 44h-3.03C22.117 44 19 35.572 19 28.502zm62 0C81 19.84 81 13 100.385 13h3.23C123 13 123 19.841 123 28.502 123 37.627 114.365 44 102 44h-3.03C84.12 44 81 35.572 81 28.502z" fill="#262E33"/></g></g></svg>