<svg xmlns:dc="http://purl.org/dc/elements/1.1/" xmlns:cc="http://creativecommons.org/ns#" xmlns:rdf="http://www.w3.org/1999/02/22-rdf-syntax-ns#" xmlns:svg="http://www.w3.org/2000/svg" xmlns="http://www.w3.org/2000/svg" viewBox="0 0 280 280" fill="none"><metadata><rdf:RDF><cc:Work><dc:format>image/svg+xml</dc:format><dc:type rdf:resource="http://purl.org/dc/dcmitype/StillImage"/><dc:title>Avataaars</dc:title><dc:creator><cc:Agent><dc:title>Pablo Stanley</dc:title></cc:Agent></dc:creator><dc:source>https://avataaars.com/</dc:source><cc:license rdf:resource="https://avataaars.com/"/><dc:contributor><cc:Agent><dc:title>Florian Körner</dc:title></cc:Agent></dc:contributor></cc:Work></rdf:RDF></metadata><mask id="avatarsRadiusMask"><rect width="280" height="280" rx="0" ry="0" x="0" y="0" fill="#fff"/></mask><g mask="url(#avatarsRadiusMask)"><g transform="translate(40, 36)"><path d="M100 0C69.072 0 44 25.072 44 56v6.166c-5.675.952-10 5.888-10 11.834v14c0 6.052 4.48 11.058 10.305 11.881 2.067 19.806 14.458 36.541 31.695 44.73V163h-4c-39.764 0-72 32.236-72 72v9h200v-9c0-39.764-32.236-72-72-72h-4v-18.389c17.237-8.189 29.628-24.924 31.695-44.73C161.52 99.058 166 94.052 166 88V74c0-5.946-4.325-10.882-10-11.834V56c0-30.928-25.072-56-56-56z" fill="#EDB98A"/><path d="M76 144.611v8A55.79 55.79 0 00100 158a55.789 55.789 0 0024-5.389v-8A55.789 55.789 0 01100 150a55.79 55.79 0 01-24-5.389z" fill="#000" fill-opacity=".1"/></g><g transform="translate(8, 170)"><path d="M100.374 29.141c1.88-2.864 4.479-5.43 7.626-7.57v15.306c0 5.823 3.978 10.976 10.078 14.118l-.078.062.909 2.865c3.878 1.994 8.341 3.13 13.091 3.13s9.213-1.136 13.091-3.13l.909-2.865-.078-.062C152.022 47.853 156 42.7 156 36.877V22.279c2.684 1.979 4.923 4.28 6.597 6.819C201.159 30.465 232 62.157 232 101.052V110H32v-8.948c0-38.549 30.294-70.022 68.374-71.91z" fill="#262E33"/><path d="M108 21.572c-6.767 4.602-11 11.168-11 18.456 0 7.398 4.362 14.052 11.308 18.664l6.113-4.816 4.579.332-1-3.151.078-.062C111.978 47.853 108 42.7 108 36.877V21.57zm48 15.305c0 5.823-3.978 10.976-10.078 14.118l.078.062-1 3.15 4.579-.33 5.65 4.45C161.863 53.733 166 47.234 166 40.027c0-6.921-3.818-13.192-10-17.748v14.598z" fill="#fff" fill-opacity=".75"/></g><g transform="translate(86, 134)"><path fill-rule="evenodd" clip-rule="evenodd" d="M35.118 15.128C36.176 24.62 44.226 32 54 32c9.804 0 17.874-7.426 18.892-16.96.082-.767-.775-2.04-1.85-2.04H37.088c-1.08 0-2.075 1.178-1.97 2.128z" fill="#000" fill-opacity=".7"/><path d="M70 13H39a5 5 0 005 5h21a5 5 0 005-5z" fill="#fff"/><path d="M66.694 27.138A10.964 10.964 0 0059 24c-1.8 0-3.5.433-5 1.2-1.5-.767-3.2-1.2-5-1.2-2.995 0-5.71 1.197-7.693 3.138A18.93 18.93 0 0054 32c4.88 0 9.329-1.84 12.694-4.862z" fill="#FF4F6D"/></g><g transform="translate(112, 122)"><path fill-rule="evenodd" clip-rule="evenodd" d="M16 8c0 4.418 5.373 8 12 8s12-3.582 12-8" fill="#000" fill-opacity=".16"/></g><g transform="translate(84, 90)"><path d="M36 22a6 6 0 11-12 0 6 6 0 0112 0zm52 0a6 6 0 11-12 0 6 6 0 0112 0z" fill="#000" fill-opacity=".6"/></g><g transform="translate(84, 82)"><path fill-rule="evenodd" clip-rule="evenodd" d="M26.547 6.148c-5.807.269-15.195 4.488-14.953 10.344.008.192.29.276.427.129 2.755-2.96 22.316-5.95 29.205-4.365.63.145 1.11-.477.71-.927-3.422-3.848-10.186-5.426-15.389-5.18zm59.906 0c5.807.269 15.195 4.488 14.953 10.344-.008.192-.29.276-.427.129-2.755-2.96-22.316-5.95-29.205-4.365-.63.145-1.11-.477-.71-.927 3.422-3.848 10.186-5.426 15.389-5.18z" fill="#000" fill-opacity=".6"/></g><g transform="translate(7, 0)"><path d="M70 97c0 3.994.924 5.071 6 5 3.255-.051 3.443-6.005 3.652-12.589.139-4.374.286-9.027 1.348-12.411.619-4.432-1.824-3.17-3-1-3.96 4.778-8 15.344-8 21zm126 0c0 3.994-.924 5.071-6 5-3.255-.051-3.443-6.005-3.652-12.589-.139-4.374-.286-9.027-1.348-12.411-.619-4.432 1.824-3.17 3-1 3.959 4.778 8 15.344 8 21z" fill="#2C1B18"/></g><g transform="translate(69, 85)"><path fill-rule="evenodd" clip-rule="evenodd" d="M38.5 9C17.21 9 9.646 14.096 8.955 14.772 7.324 14.772 6 16.062 6 17.657v2.886c0 1.596 1.324 2.886 2.955 2.886 0 0 5.909 0 5.909 2.886 0 .435.067.644.181.68A62.59 62.59 0 0015 29.5C15 42.336 23.315 50 37.242 50H40c14.721 0 25-8.431 25-20.5 0-1.502-.038-2.999-.17-4.46l1.583-.773a7.917 7.917 0 011.891-.633c1.855-.38 3.952-.227 5.992.276.732.18 1.26.354 1.504.45l1.381.547C77.041 26.41 77 27.953 77 29.5 77 42.336 85.315 50 99.242 50H102c14.721 0 25-8.431 25-20.5 0-1.536-.04-3.067-.178-4.56 1.739-1.511 6.223-1.511 6.223-1.511 1.634 0 2.955-1.29 2.955-2.886v-2.886c0-1.596-1.321-2.885-2.955-2.885C132.354 14.096 124.79 9 103.5 9h-2.97c-1.79 0-3.445.069-4.975.201-9.533.539-14.679 2.15-19.913 4.696a17.01 17.01 0 01-4.563.869c-2.379-.076-4.412-.767-4.81-.908l-.419-.206-.006-.003c-4.935-2.415-8.429-4.125-20.772-4.547A61.165 61.165 0 0041.47 9H38.5zM19 30.502C19 21.84 19 15 38.385 15h3.23C61 15 61 21.841 61 30.502 61 39.627 52.365 46 40 46h-3.03C22.117 46 19 37.572 19 30.502zm62 0C81 21.84 81 15 100.385 15h3.23C123 15 123 21.841 123 30.502 123 39.627 114.365 46 102 46h-3.03C84.12 46 81 37.572 81 30.502z" fill="#000" fill-opacity=".1"/><path fill-rule="evenodd" clip-rule="evenodd" d="M38.5 7C17.21 7 9.646 12.096 8.955 12.772 7.324 12.772 6 14.062 6 15.657v2.886c0 1.596 1.324 2.886 2.955 2.886 0 0 5.909 0 5.909 2.886 0 .435.067.644.181.68A62.59 62.59 0 0015 27.5C15 40.336 23.315 48 37.242 48H40c14.721 0 25-8.431 25-20.5 0-1.502-.038-2.999-.17-4.46l1.583-.773a7.917 7.917 0 011.891-.633c1.855-.38 3.952-.227 5.992.276.732.18 1.26.354 1.504.45l1.381.547C77.041 24.41 77 25.953 77 27.5 77 40.336 85.315 48 99.242 48H102c14.721 0 25-8.431 25-20.5 0-1.536-.04-3.067-.178-4.56 1.739-1.511 6.223-1.511 6.223-1.511 1.634 0 2.955-1.29 2.955-2.886v-2.886c0-1.595-1.321-2.885-2.955-2.885C132.354 12.096 124.79 7 103.5 7h-2.97c-1.79 0-3.445.069-4.975.2-9.533.54-14.679 2.152-19.913 4.697a17.01 17.01 0 01-4.563.869c-2.379-.076-4.412-.767-4.81-.908l-.419-.206-.006-.003c-4.935-2.415-8.429-4.125-20.772-4.547A61.165 61.165 0 0041.47 7H38.5zM19 28.502C19 19.84 19 13 38.385 13h3.23C61 13 61 19.841 61 28.502 61 37.627 52.365 44 40 44h-3.03C22.117 44 19 35.572 19 28.502zm62 0C81 19.84 81 13 100.385 13h3.23C123 13 123 19.841 123 28.502 123 37.627 114.365 44 102 44h-3.03C84.12 44 81 35.572 81 28.502z" fill="#262E33"/></g></g></svg>